<?xml version="1.0" encoding="UTF-8" standalone="no"?>
<!-- Created with Inkscape (http://www.inkscape.org/) -->

<svg
   width="100mm"
   height="100mm"
   viewBox="0 0 100 100"
   version="1.1"
   id="svg5"
   xml:space="preserve"
   inkscape:version="1.2.2 (b0a8486541, 2022-12-01)"
   sodipodi:docname="geo_plot.svg"
   xmlns:inkscape="http://www.inkscape.org/namespaces/inkscape"
   xmlns:sodipodi="http://sodipodi.sourceforge.net/DTD/sodipodi-0.dtd"
   xmlns="http://www.w3.org/2000/svg"
   xmlns:svg="http://www.w3.org/2000/svg"><sodipodi:namedview
     id="namedview7"
     pagecolor="#ffffff"
     bordercolor="#000000"
     borderopacity="0.25"
     inkscape:showpageshadow="2"
     inkscape:pageopacity="0.0"
     inkscape:pagecheckerboard="0"
     inkscape:deskcolor="#d1d1d1"
     inkscape:document-units="px"
     showgrid="false"
     inkscape:zoom="1.253274"
     inkscape:cx="245.75632"
     inkscape:cy="216.23364"
     inkscape:window-width="1503"
     inkscape:window-height="933"
     inkscape:window-x="0"
     inkscape:window-y="0"
     inkscape:window-maximized="1"
     inkscape:current-layer="layer1" /><defs
     id="defs2" /><g
     inkscape:label="Layer 1"
     inkscape:groupmode="layer"
     id="layer1"><path
       style="fill:#decd87;fill-opacity:1;stroke:#504416;stroke-width:5.29167;stroke-linecap:round;stroke-linejoin:bevel;stroke-dasharray:none;stroke-dashoffset:0"
       d="m 18.615009,15.181832 c 0,0 6.54209,42.557739 5.796758,53.316263 -0.745332,10.758524 -11.444693,22.87719 -11.444693,22.87719 l 71.426253,0.522097 C 91.228183,85.003973 92.183332,76.833986 92.571246,70.762151 92.95916,64.690316 92.740805,12.971452 83.43452,5.7047665 79.31136,2.4852536 65.551099,3.5895572 51.502547,4.0114387 33.842452,4.5417758 15.726787,4.9349364 15.726787,4.9349364 c 0,0 -6.5748142,1.2785103 -6.2680203,7.6498206 0.3067939,6.371311 9.1562423,2.597075 9.1562423,2.597075 z"
       id="path39639"
       sodipodi:nodetypes="czcczssczc" /><path
       style="fill:#decd87;fill-opacity:1;stroke:#504416;stroke-width:5.29167;stroke-linecap:round;stroke-linejoin:bevel;stroke-dasharray:none;stroke-dashoffset:0"
       d="M 18.746754,15.077426 79.73107,14.461147 c 0,0 -7.119367,0.17505 -6.969324,-5.4673965 0.150042,-5.6424459 9.050365,-4.0040708 9.050365,-4.0040708"
       id="path39866"
       sodipodi:nodetypes="cczc" /><g
       id="g39984"
       transform="rotate(21.872689,33.800601,33.274884)"><path
         style="fill:#decd87;fill-opacity:1;stroke:#aa0000;stroke-width:5.29167;stroke-linecap:round;stroke-linejoin:bevel;stroke-dasharray:none;stroke-dashoffset:0"
         d="M 30.233794,27.141307 41.649602,38.28003"
         id="path39868" /><path
         style="fill:#decd87;fill-opacity:1;stroke:#aa0000;stroke-width:5.29167;stroke-linecap:round;stroke-linejoin:bevel;stroke-dasharray:none;stroke-dashoffset:0"
         d="M 42.84454,25.899365 31.412238,39.59207"
         id="path39870" /></g><path
       style="fill:none;fill-opacity:1;stroke:#aa0000;stroke-width:5.29167;stroke-linecap:round;stroke-linejoin:bevel;stroke-dasharray:none;stroke-dashoffset:0"
       d="m 36.260431,80.736445 c 0,0 -0.334402,-15.733333 6.540401,-20.029415 6.874803,-4.296081 15.295436,12.293662 28.332121,6.071993 C 84.169638,60.557353 89.260693,43.330557 76.963319,34.46543 64.665945,25.600303 58.391087,45.490349 36.20353,33.913731"
       id="path39926"
       sodipodi:nodetypes="czzzc" /></g></svg>
