<?xml version="1.0" encoding="UTF-8" standalone="no"?>
<!-- Created with Inkscape (http://www.inkscape.org/) -->

<svg
   width="100mm"
   height="100mm"
   viewBox="0 0 100 100"
   version="1.1"
   id="svg5"
   xml:space="preserve"
   inkscape:version="1.2.2 (b0a8486541, 2022-12-01)"
   sodipodi:docname="python.svg"
   xmlns:inkscape="http://www.inkscape.org/namespaces/inkscape"
   xmlns:sodipodi="http://sodipodi.sourceforge.net/DTD/sodipodi-0.dtd"
   xmlns="http://www.w3.org/2000/svg"
   xmlns:svg="http://www.w3.org/2000/svg"><sodipodi:namedview
     id="namedview7"
     pagecolor="#ffffff"
     bordercolor="#000000"
     borderopacity="0.25"
     inkscape:showpageshadow="2"
     inkscape:pageopacity="0.0"
     inkscape:pagecheckerboard="0"
     inkscape:deskcolor="#d1d1d1"
     inkscape:document-units="px"
     showgrid="false"
     inkscape:zoom="0.97775037"
     inkscape:cx="131.93552"
     inkscape:cy="168.75473"
     inkscape:window-width="1503"
     inkscape:window-height="933"
     inkscape:window-x="0"
     inkscape:window-y="0"
     inkscape:window-maximized="1"
     inkscape:current-layer="layer1" /><defs
     id="defs2" /><g
     inkscape:label="Layer 1"
     inkscape:groupmode="layer"
     id="layer1"><g
       id="g35049"
       transform="matrix(1.3884691,0,0,1.3381735,92.368794,-83.211312)"><path
         style="fill:#417dac;stroke:none;stroke-width:1.17364"
         d="m -45.787716,81.52062 h 15.257329 v 2.347281 c -7.39511,0 -7.841925,0.0048 -20.502949,0 -12.661024,-0.0048 -11.661756,11.739615 -11.663032,16.927099 -0.0024,9.77004 1.662964,15.18314 14.56137,14.7612 0.05454,-15.18868 0.797777,-16.910642 16.384283,-17.05325 15.586505,-0.142607 18.358652,1.91879 18.055491,-16.306412 -0.303161,-18.225204 -0.987767,-16.011151 -16.444115,-15.940027 -15.456349,0.07112 -15.915547,-2.418485 -15.648377,15.264109 m 7.436232,-4.760624 c -2.478334,-0.0024 -1.739292,-2.586857 -0.259702,-2.586141 1.211743,5.86e-4 2.357864,2.005931 0.259702,2.586141 z"
         id="path34077"
         sodipodi:nodetypes="ccczsczzzccsc" /><path
         style="fill:#ffe469;fill-opacity:1;stroke:none;stroke-width:1.17364"
         d="m -14.851677,117.97839 h -15.257329 v -2.34728 c 7.39511,0 7.841925,-0.005 20.5029494,0 12.661024,0.005 11.661756,-11.73962 11.663032,-16.92711 0.0024,-9.770036 -1.66296404,-15.183136 -14.5613704,-14.761186 -0.05454,15.188676 -0.797777,16.910636 -16.384283,17.053246 -15.586505,0.14261 -18.358652,-1.91879 -18.055491,16.30641 0.303161,18.22521 0.987767,16.01116 16.444115,15.94003 15.456349,-0.0711 15.915547,2.41849 15.648377,-15.26411 m -7.436232,4.76062 c 2.478334,0.002 1.739292,2.58686 0.259702,2.58614 -1.211743,-5.8e-4 -2.357864,-2.00593 -0.259702,-2.58614 z"
         id="path34079"
         sodipodi:nodetypes="ccczsczzzccsc" /></g></g></svg>
