<?xml version="1.0" encoding="UTF-8" standalone="no"?>
<!-- Created with Inkscape (http://www.inkscape.org/) -->

<svg
   width="100mm"
   height="100mm"
   viewBox="0 0 100 100"
   version="1.1"
   id="svg5"
   xml:space="preserve"
   inkscape:version="1.2.2 (b0a8486541, 2022-12-01)"
   sodipodi:docname="scala.svg"
   xmlns:inkscape="http://www.inkscape.org/namespaces/inkscape"
   xmlns:sodipodi="http://sodipodi.sourceforge.net/DTD/sodipodi-0.dtd"
   xmlns="http://www.w3.org/2000/svg"
   xmlns:svg="http://www.w3.org/2000/svg"><sodipodi:namedview
     id="namedview7"
     pagecolor="#ffffff"
     bordercolor="#000000"
     borderopacity="0.25"
     inkscape:showpageshadow="2"
     inkscape:pageopacity="0.0"
     inkscape:pagecheckerboard="0"
     inkscape:deskcolor="#d1d1d1"
     inkscape:document-units="px"
     showgrid="false"
     inkscape:zoom="0.36331174"
     inkscape:cx="71.563887"
     inkscape:cy="558.74881"
     inkscape:window-width="1503"
     inkscape:window-height="933"
     inkscape:window-x="0"
     inkscape:window-y="0"
     inkscape:window-maximized="1"
     inkscape:current-layer="layer1" /><defs
     id="defs2" /><g
     inkscape:label="Layer 1"
     inkscape:groupmode="layer"
     id="layer1"><g
       id="g35348"
       transform="matrix(0.68035582,0,0,0.68035537,76.584428,8.0759888)"><path
         style="fill:#d02e2f;stroke:none;stroke-width:0.264583"
         d="m 2.9099657,-4.0924527 c -3.46577698,5.9918071 -13.6696977,7.5018636 -19.8437497,8.9652211 -13.839296,3.2800662 -28.01329,4.8299422 -42.06875,6.8381306 -4.142581,0.591872 -8.306303,1.036558 -12.435417,1.724474 -1.568609,0.261329 -3.846312,0.254979 -5.207556,1.143477 -0.992055,0.647514 -0.613277,2.538491 -0.613277,3.553698 v 10.583333 11.641667 c 0,1.167077 -0.461344,3.603625 0.271933,4.576498 1.213371,1.609989 6.317197,1.574535 8.194734,1.845204 7.660031,1.103841 15.341441,2.133071 23.01875,3.103298 v 0.264583 c -7.707577,0.02117 -15.918683,1.892565 -23.547917,3.021806 -1.794801,0.265642 -6.560402,0.22225 -7.665567,1.854465 -0.719407,1.062302 -0.271933,3.412331 -0.271933,4.648729 v 12.170833 9.789584 c 0,0.958056 -0.338498,2.744523 0.424232,3.478212 1.601333,1.539875 6.190827,1.481402 8.307018,1.779059 7.426007,1.043781 15.261564,2.790295 22.754167,2.944812 v 0.264583 c -7.706572,0.330994 -15.644257,2.002632 -23.283334,3.103298 -1.825175,0.262996 -6.779205,0.173038 -7.93015,1.794934 -1.117145,1.57427 -0.271933,6.159234 -0.271933,8.066344 v 21.69584 c 19.306805,-4.41537 39.35095,-5.1308 58.7375,-9.41282 5.096934,-1.1258 10.2729767,-2.35082 15.0812497,-4.41986 2.088357,-0.89853 4.534959,-1.94681 5.859463,-3.89838 1.042194,-1.53564 0.755121,-3.52636 0.755121,-5.28769 V 90.892964 78.986714 c 0,-1.744133 0.357716,-3.950229 -0.446617,-5.55625 -0.864129,-1.725612 -2.63101698,-2.528093 -4.0513,-3.704166 1.93595602,-0.710142 4.098925,-2.32119 4.441296,-4.497917 0.950648,-6.040967 0.05662,-12.929394 0.05662,-19.05 0,-3.713427 0.727075,-8.287808 -0.104246,-11.90625 -0.470428,-2.046817 -2.59053398,-3.455194 -4.39367,-4.233333 v -0.264584 c 1.79757902,-0.85037 3.856567,-2.174875 4.356894,-4.233333 0.534987,-2.201333 0.141023,-4.88606 0.141023,-7.14375 V 4.374214 c 0,-2.4665252 0.689769,-6.1922025 -0.264584,-8.4666667 z"
         id="path35315" /><path
         style="fill:#000000;stroke-width:0.264583"
         d="m -48.0492,89.823354 c -0.363802,-0.0425 -5.185834,-0.6741 -10.715625,-1.40349 -5.529792,-0.72939 -11.483368,-1.56079 -13.230169,-1.84755 -1.7468,-0.28676 -3.532738,-0.61608 -3.968749,-0.73183 l -0.792749,-0.21046 -0.08134,-0.68546 -0.08134,-0.68546 1.801132,-0.39906 c 0.990622,-0.21948 3.051287,-0.5871 4.579256,-0.81692 1.527969,-0.22983 7.719219,-1.07711 13.758334,-1.88285 6.039114,-0.80573 14.135364,-1.94638 17.991666,-2.53476 3.856303,-0.58838 9.181577,-1.47265 11.833945,-1.96503 2.652369,-0.49239 6.700494,-1.31509 8.995834,-1.82823 2.295339,-0.51315 5.66163,-1.35761 7.480641,-1.8766 1.819011,-0.51899 4.3788551,-1.366876 5.6885422,-1.884192 l 4.36562192,-1.157709 c 0,0.130594 0.226118,0.309211 0.50248596,0.396926 0.276365,0.08772 1.05027192,0.669607 1.71979192,1.293093 l 1.217305,1.133607 v 1.029765 1.02975 l -0.0017,1.3223 0.0016,0.77295 -1.233699,1.1821 -1.23369996,1.18209 -2.66890484,1.26438 c -1.467897,0.69541 -3.7935211,1.63687 -5.1680562,2.09214 -1.374531,0.45527 -4.09129,1.23939 -6.03724,1.74248 -1.945948,0.50309 -5.881485,1.38292 -8.745642,1.95517 -2.864154,0.57225 -7.053022,1.34773 -9.308595,1.72329 -2.255573,0.37556 -6.42276,1.03494 -9.260417,1.46529 -2.424767,0.48531 -4.925211,0.33138 -7.408273,0.32427 z"
         id="path35341"
         sodipodi:nodetypes="cssscccsssssssccsscccccccssssscc" /><path
         style="fill:#000000;stroke-width:0.264583"
         d="m -48.0492,50.13585 c -0.363802,-0.0425 -5.185834,-0.6741 -10.715625,-1.40349 -5.529792,-0.72939 -11.483368,-1.56079 -13.230169,-1.84755 -1.7468,-0.28676 -3.532738,-0.61608 -3.968749,-0.73183 l -0.792749,-0.21046 -0.08134,-0.68546 -0.08134,-0.68546 1.801132,-0.39906 c 0.990622,-0.21948 3.051287,-0.5871 4.579256,-0.81692 1.527969,-0.22983 7.719219,-1.07711 13.758334,-1.88285 6.039114,-0.80573 14.135364,-1.94638 17.991666,-2.53476 3.856303,-0.58838 9.181577,-1.47265 11.833945,-1.96503 2.652369,-0.49239 6.700494,-1.31509 8.995834,-1.82823 2.295339,-0.51315 5.66163,-1.35761 7.480641,-1.8766 1.819011,-0.51899 4.3788551,-1.366876 5.6885422,-1.884192 l 4.36562192,-1.157709 c 0,0.130594 0.226118,0.309211 0.50248596,0.396926 0.276365,0.08772 1.05027192,0.669607 1.71979192,1.293093 l 1.217305,1.133607 v 1.029765 1.02975 l -0.0017,1.3223 0.0016,0.77295 -1.233699,1.1821 -1.23369996,1.18209 -2.66890484,1.26438 c -1.467897,0.69541 -3.7935211,1.63687 -5.1680562,2.09214 -1.374531,0.45527 -4.09129,1.23939 -6.03724,1.74248 -1.945948,0.50309 -5.881485,1.38292 -8.745642,1.95517 -2.864154,0.57225 -7.053022,1.34773 -9.308595,1.72329 -2.255573,0.37556 -6.42276,1.03494 -9.260417,1.46529 -2.424767,0.48531 -4.925211,0.33138 -7.408273,0.32427 z"
         id="path35343"
         sodipodi:nodetypes="cssscccsssssssccsscccccccssssscc" /></g></g></svg>
